<?xml version="1.0" encoding="UTF-8"?>
<svg xmlns="http://www.w3.org/2000/svg" xmlns:xlink="http://www.w3.org/1999/xlink" width="384pt" height="383.999986pt" viewBox="0 0 384 383.999986" version="1.2">
<g id="surface1">
<path style=" stroke:none;fill-rule:nonzero;fill:rgb(0%,76.858521%,70.199585%);fill-opacity:1;" d="M 110.089844 109.355469 L 86.164062 85.445312 L 86.257812 258.160156 L 86.546875 266.222656 C 86.664062 270.035156 87.386719 274.308594 88.542969 278.753906 L 278.050781 345.523438 L 325.464844 324.558594 L 325.503906 324.488281 L 110.082031 109.355469 Z M 110.089844 109.355469 "/>
<path style=" stroke:none;fill-rule:nonzero;fill:rgb(13.328552%,82.749939%,77.249146%);fill-opacity:1;" d="M 88.546875 278.753906 L 88.566406 278.753906 C 88.546875 278.6875 88.519531 278.605469 88.484375 278.523438 C 88.523438 278.609375 88.523438 278.699219 88.542969 278.753906 Z M 325.417969 324.558594 L 278.003906 345.523438 L 88.523438 278.753906 C 92.136719 292.640625 100.15625 308.246094 108.773438 316.761719 L 170.585938 378.199219 L 308.128906 378.371094 L 325.359375 324.558594 Z M 325.417969 324.558594 "/>
<path style=" stroke:none;fill-rule:nonzero;fill:rgb(0%,45.878601%,78.819275%);fill-opacity:1;" d="M 86.8125 85.449219 L 13.132812 196.605469 C 7.015625 203.132812 10.066406 216.601562 19.914062 226.523438 L 62.445312 269.359375 L 89.183594 278.773438 C 88.027344 274.335938 87.296875 270.109375 87.1875 266.238281 L 86.898438 258.175781 L 86.8125 85.460938 Z M 86.8125 85.449219 "/>
<path style=" stroke:none;fill-rule:nonzero;fill:rgb(0%,45.878601%,78.819275%);fill-opacity:1;" d="M 279.613281 87.671875 C 275.160156 86.546875 270.890625 85.835938 267.046875 85.726562 L 258.5 85.414062 L 86.164062 85.457031 L 325.5 324.492188 L 346.523438 277.132812 L 279.625 87.683594 Z M 279.613281 87.671875 "/>
<path style=" stroke:none;fill-rule:nonzero;fill:rgb(0%,65.879822%,88.238525%);fill-opacity:1;" d="M 279.390625 87.632812 C 279.46875 87.660156 279.546875 87.679688 279.613281 87.691406 L 279.613281 87.667969 C 279.535156 87.648438 279.46875 87.648438 279.390625 87.621094 Z M 317.640625 107.953125 C 308.9375 99.203125 293.527344 91.203125 279.613281 87.691406 L 346.511719 277.121094 L 325.464844 324.484375 L 376.820312 308.089844 L 376.9375 167.4375 L 317.632812 107.945312 Z M 317.640625 107.953125 "/>
<path style=" stroke:none;fill-rule:nonzero;fill:rgb(0%,76.858521%,70.199585%);fill-opacity:1;" d="M 270.234375 61.132812 L 227.445312 18.625 C 217.464844 8.820312 203.980469 5.761719 197.503906 11.859375 L 86.234375 85.445312 L 258.570312 85.402344 L 267.117188 85.714844 C 270.960938 85.832031 275.234375 86.535156 279.679688 87.660156 L 270.246094 61.121094 Z M 270.234375 61.132812 "/>
</g>
</svg>
